{"glyphs":{":":{"x_min":0,"x_max":327,"ha":327,"o":"m 164 433 q 177 433 189 428 q 201 423 210 414 q 219 405 224 393 q 229 381 229 368 q 229 354 224 343 q 219 331 210 322 q 201 312 189 307 q 177 302 164 302 q 150 302 138 307 q 126 312 117 322 q 108 331 103 343 q 98 354 98 368 q 98 381 103 393 q 108 405 117 414 q 126 423 138 428 q 150 433 164 433 z m 164 121 q 177 121 189 116 q 201 111 210 102 q 219 93 224 81 q 229 69 229 56 q 229 42 224 31 q 219 19 210 10 q 201 0 189 -5 q 177 -10 164 -10 q 150 -10 138 -5 q 126 0 117 10 q 108 19 103 31 q 98 42 98 56 q 98 69 103 81 q 108 93 117 102 q 126 111 138 116 q 150 121 164 121 z"},"$":{"x_min":0,"x_max":571,"ha":571,"o":"m 319 636 l 319 404 q 356 394 383 383 q 409 373 435 356 q 461 339 477 319 q 493 298 503 267 q 513 236 513 197 q 513 109 461 57 q 409 5 319 -8 l 319 -64 l 249 -64 l 249 -12 q 150 -10 59 30 l 88 101 q 170 67 249 63 l 249 335 q 212 345 187 356 q 161 366 137 382 q 113 397 98 417 q 83 438 74 466 q 65 495 63 531 q 63 606 114 655 q 164 703 249 711 l 249 767 l 319 767 l 319 711 q 399 704 473 671 l 443 600 q 373 630 319 636 z m 249 424 l 249 635 q 205 628 178 603 q 151 577 151 531 q 151 486 174 463 q 197 440 249 424 z m 319 315 l 319 70 q 370 82 397 114 q 425 147 425 197 q 425 247 399 272 q 374 298 319 315 z"},"?":{"x_min":0,"x_max":535,"ha":535,"o":"m 59 666 q 87 680 116 690 q 146 700 177 706 q 194 709 213 711 q 231 713 250 713 q 274 713 298 709 q 322 706 345 697 q 391 678 419 639 q 447 599 447 536 q 447 490 432 458 q 417 426 389 402 q 362 378 323 360 q 283 341 235 323 l 235 206 l 167 187 l 138 357 q 189 380 230 397 q 271 415 300 434 q 329 454 344 478 q 359 503 359 541 q 359 568 348 588 q 337 607 319 619 q 304 629 286 633 q 267 637 247 637 q 204 637 162 623 q 121 610 87 592 z m 200 109 q 212 109 223 105 q 234 100 242 92 q 250 84 255 73 q 260 62 260 50 q 260 38 255 27 q 250 17 242 8 q 234 0 223 -5 q 212 -10 200 -10 q 188 -10 177 -5 q 167 0 158 8 q 150 16 145 27 q 140 38 140 50 q 140 62 145 73 q 150 84 158 92 q 166 100 177 105 q 188 109 200 109 z"},"<":{"x_min":0,"x_max":467,"ha":467,"o":"m 436 116 l 436 47 l 32 224 l 32 281 l 436 457 l 436 388 l 122 253 z"},"'":{"x_min":0,"x_max":272,"ha":272,"o":"m 71 688 q 91 703 106 708 q 121 713 136 713 q 162 713 178 703 q 194 693 202 676 q 209 660 208 639 q 207 618 198 597 q 192 583 183 564 q 173 545 162 525 q 151 505 140 486 q 129 466 121 452 l 56 452 l 98 593 z"},"=":{"x_min":0,"x_max":552,"ha":552,"o":"m 74 325 l 74 392 l 478 392 l 478 325 z m 74 138 l 74 205 l 478 205 l 478 138 z"},"a":{"x_min":0,"x_max":508,"ha":508,"o":"m 112 418 l 90 486 q 172 519 262 519 q 341 519 382 493 q 430 462 430 390 l 430 190 q 430 150 431 108 q 431 83 436 56 q 439 31 446 8 l 366 -10 q 354 23 352 63 l 342 64 q 281 -12 188 -12 q 119 -12 78 26 q 36 64 36 133 q 36 184 59 217 q 82 250 123 272 q 188 308 306 308 q 322 308 348 307 l 348 381 q 348 416 327 432 q 305 447 259 447 q 192 447 112 418 z m 348 143 l 348 245 q 335 246 310 246 q 267 246 230 239 q 177 228 147 205 q 118 182 118 138 q 118 60 203 60 q 247 60 285 83 q 316 103 348 143 z"},"L":{"x_min":0,"x_max":509,"ha":509,"o":"m 95 702 l 187 702 l 187 75 l 475 75 l 475 0 l 95 0 z"},"3":{"x_min":0,"x_max":477,"ha":477,"o":"m 271 440 l 193 440 q 150 440 124 444 q 84 450 53 462 l 81 532 q 115 519 146 515 q 177 511 246 511 l 375 511 l 375 455 l 250 302 q 288 305 318 295 q 349 286 370 268 q 391 250 405 226 q 420 202 427 175 q 433 147 433 119 q 433 -45 227 -106 q 143 -131 44 -134 l 44 -59 q 135 -53 191 -37 q 265 -17 306 21 q 348 60 348 123 q 348 178 318 207 q 288 235 236 235 q 201 235 160 220 l 136 267 z"},";":{"x_min":0,"x_max":354,"ha":354,"o":"m 192 433 q 206 433 218 428 q 229 423 238 414 q 247 405 252 393 q 257 381 257 368 q 257 354 252 343 q 247 331 238 322 q 229 312 218 307 q 206 302 192 302 q 178 302 166 307 q 154 312 146 322 q 137 331 132 343 q 126 354 126 368 q 126 381 132 393 q 137 405 146 414 q 154 423 166 428 q 178 433 192 433 z m 127 86 q 146 100 159 104 q 172 109 186 109 q 210 109 225 100 q 239 90 246 75 q 252 61 251 42 q 250 22 243 3 q 237 -9 229 -26 q 220 -43 210 -62 q 200 -80 190 -98 q 180 -115 173 -128 l 113 -128 l 152 0 z"},"J":{"x_min":0,"x_max":350,"ha":350,"o":"m 174 702 l 266 702 l 266 209 q 266 141 260 95 q 254 49 238 14 q 203 -63 97 -111 l 61 -58 q 109 -17 125 0 q 137 14 145 28 q 174 77 174 171 z"},"V":{"x_min":0,"x_max":717,"ha":717,"o":"m 565 702 l 662 702 l 399 -1 l 318 -1 l 55 702 l 151 702 l 359 112 z"},"\"":{"x_min":0,"x_max":451,"ha":451,"o":"m 62 688 q 82 703 97 708 q 112 713 127 713 q 154 713 170 703 q 187 693 194 677 q 201 660 199 639 q 198 618 189 597 q 183 583 174 564 q 164 545 153 525 q 142 505 131 486 q 120 466 112 452 l 47 452 l 89 593 z m 257 688 q 278 703 292 708 q 307 713 322 713 q 349 713 365 703 q 381 693 388 676 q 396 660 395 639 q 394 618 385 597 q 379 583 369 564 q 359 545 348 525 q 337 505 326 486 q 315 466 308 452 l 242 452 l 285 593 z"},"7":{"x_min":0,"x_max":484,"ha":484,"o":"m 44 511 l 261 511 q 317 511 354 515 q 388 520 421 528 l 445 458 q 351 320 311 239 q 269 156 256 77 q 247 14 247 -93 l 247 -129 l 162 -129 q 162 5 173 82 q 184 158 225 246 q 255 312 336 438 l 44 438 z"},"S":{"x_min":0,"x_max":584,"ha":584,"o":"m 85 102 q 105 94 128 87 q 150 81 173 76 q 196 71 220 68 q 243 65 266 65 q 304 65 335 74 q 367 83 389 99 q 412 116 424 141 q 436 166 436 197 q 436 229 425 249 q 413 270 391 283 q 370 297 338 306 q 306 316 266 326 q 221 338 183 352 q 145 367 117 390 q 90 413 74 447 q 59 480 59 531 q 59 573 75 606 q 92 640 122 664 q 152 688 195 700 q 237 713 289 713 q 313 713 339 710 q 365 707 391 701 q 416 696 440 688 q 465 680 486 671 l 457 599 q 439 605 421 612 q 403 619 382 625 q 362 630 339 633 q 315 636 289 636 q 262 636 237 630 q 213 625 194 612 q 175 600 164 580 q 153 560 153 531 q 153 500 164 479 q 176 459 198 445 q 219 432 251 422 q 283 413 323 402 q 368 391 406 376 q 444 362 471 339 q 499 316 515 282 q 530 248 530 197 q 530 144 510 105 q 491 65 455 40 q 420 14 371 1 q 323 -12 266 -12 q 158 -12 56 30 z"},"}":{"x_min":0,"x_max":347,"ha":347,"o":"m 87 704 l 87 764 q 175 764 216 727 q 250 695 250 638 l 250 449 q 250 416 273 381 q 285 364 297 353 q 272 329 257 294 q 250 276 250 257 l 250 62 q 250 4 216 -27 q 175 -64 87 -64 l 87 -4 q 144 -4 163 17 q 178 33 178 82 l 178 257 q 178 290 191 316 q 200 334 215 353 q 200 371 191 389 q 178 416 178 449 l 178 618 q 178 665 163 682 q 145 704 87 704 z"},"Z":{"x_min":0,"x_max":603,"ha":603,"o":"m 83 702 l 528 702 l 528 637 l 186 75 l 531 75 l 531 0 l 72 0 l 72 64 l 415 627 l 83 627 z"},"x":{"x_min":0,"x_max":551,"ha":551,"o":"m 50 471 l 112 519 l 272 315 l 409 508 l 505 508 l 321 252 l 492 37 l 430 -12 l 275 186 l 143 0 l 45 0 l 225 248 z"},")":{"x_min":0,"x_max":381,"ha":381,"o":"m 79 -76 q 109 -32 132 8 q 154 48 168 91 q 183 133 190 180 q 197 227 197 285 q 197 343 190 390 q 183 438 168 480 q 154 522 132 562 q 109 602 79 646 l 104 672 q 146 641 180 600 q 214 559 238 510 q 262 460 275 404 q 288 348 288 285 q 288 223 275 166 q 262 110 238 61 q 214 12 180 -29 q 146 -70 104 -102 z"},"&":{"x_min":0,"x_max":735,"ha":735,"o":"m 660 146 l 708 109 q 696 85 688 71 q 680 58 667 40 q 654 22 643 12 q 631 3 614 -4 q 598 -11 579 -11 q 545 -11 519 4 q 492 20 456 64 q 369 -12 253 -12 q 226 -12 200 -7 q 128 6 89 53 q 49 101 49 171 q 49 206 56 232 q 64 259 84 286 q 104 313 130 337 q 156 361 200 397 q 156 455 141 489 q 126 522 126 556 q 126 624 170 668 q 214 713 296 713 q 360 713 448 692 l 428 626 q 423 627 404 631 q 384 636 379 637 q 373 638 360 640 q 347 642 337 643 q 328 644 317 644 q 264 644 240 620 q 216 596 216 557 q 216 537 228 512 q 239 488 268 447 l 468 188 q 505 248 518 321 l 454 321 l 454 388 l 672 388 l 672 321 l 583 321 q 562 208 513 131 q 539 96 554 80 q 570 64 583 64 q 600 64 617 83 q 635 102 660 146 z m 410 123 l 242 342 q 191 305 164 268 q 136 230 136 183 q 136 130 171 98 q 205 66 261 66 q 295 66 335 80 q 375 95 410 123 z"},"_":{"x_min":0,"x_max":529,"ha":529,"o":"m 78 71 l 451 71 l 451 0 l 78 0 z"},"v":{"x_min":0,"x_max":499,"ha":499,"o":"m 475 508 l 306 0 l 193 0 l 24 508 l 115 508 l 250 64 l 384 508 z"},"O":{"x_min":0,"x_max":724,"ha":724,"o":"m 670 351 q 670 175 590 82 q 511 -12 362 -12 q 214 -12 134 81 q 54 174 54 351 q 54 527 134 620 q 215 713 362 713 q 511 713 590 619 q 670 526 670 351 z m 576 351 q 576 487 522 562 q 469 636 361 636 q 253 636 201 561 q 148 485 148 351 q 148 285 160 233 q 173 181 198 143 q 224 105 265 85 q 307 65 361 65 q 469 65 522 140 q 576 215 576 351 z"},"(":{"x_min":0,"x_max":381,"ha":381,"o":"m 303 646 q 272 602 250 562 q 228 522 213 480 q 198 438 191 390 q 185 343 185 285 q 185 227 191 180 q 198 133 213 91 q 228 48 250 8 q 272 -32 303 -76 l 277 -102 q 235 -70 201 -29 q 167 12 144 61 q 120 110 106 166 q 93 223 93 285 q 93 348 106 404 q 120 460 144 510 q 167 559 201 600 q 235 641 277 672 z"},"C":{"x_min":0,"x_max":605,"ha":605,"o":"m 565 20 q 520 6 469 -3 q 418 -12 358 -12 q 208 -12 132 78 q 56 167 56 341 q 56 525 132 619 q 208 713 358 713 q 415 713 460 703 q 505 693 547 678 l 521 605 q 501 613 482 619 q 462 625 443 628 q 423 632 402 634 q 381 636 358 636 q 304 636 265 617 q 226 598 200 561 q 175 524 163 471 q 150 418 150 351 q 150 281 163 228 q 175 175 200 138 q 226 102 265 83 q 304 65 358 65 q 408 65 453 73 q 498 82 542 95 z"},"W":{"x_min":0,"x_max":903,"ha":903,"o":"m 868 702 l 783 0 l 647 0 l 452 608 l 256 0 l 120 0 l 36 702 l 125 702 l 198 111 l 203 111 l 397 702 l 506 702 l 700 111 l 705 111 l 778 702 z"},"A":{"x_min":0,"x_max":668,"ha":668,"o":"m 565 0 l 473 239 l 195 239 l 103 0 l 10 0 l 288 702 l 380 702 l 659 0 z m 224 314 l 444 314 l 334 600 z"},"f":{"x_min":0,"x_max":447,"ha":447,"o":"m 135 508 l 135 563 q 135 599 142 625 q 149 652 166 674 q 183 697 216 708 q 249 720 297 720 q 360 720 447 699 l 432 630 q 350 647 307 647 q 286 647 272 645 q 257 643 248 636 q 238 629 232 622 q 227 615 224 600 q 222 585 221 572 q 220 559 220 536 l 220 508 l 383 508 l 383 437 l 220 437 l 220 71 l 383 71 l 383 0 l 50 0 l 50 71 l 135 71 l 135 437 l 50 437 l 50 508 z"},"Q":{"x_min":0,"x_max":733,"ha":733,"o":"m 365 713 q 440 713 497 689 q 555 666 594 619 q 633 573 653 506 q 673 438 673 351 q 673 209 623 122 q 572 35 475 4 q 499 -14 516 -27 q 534 -40 551 -50 q 567 -60 587 -68 q 606 -76 634 -84 q 628 -104 621 -123 q 613 -142 604 -161 q 586 -156 570 -150 q 554 -144 538 -136 q 521 -129 505 -118 q 488 -107 467 -93 q 447 -78 422 -58 q 397 -38 365 -12 q 292 -12 235 11 q 178 35 138 80 q 99 126 78 194 q 57 262 57 351 q 57 440 78 508 q 99 575 138 621 q 178 667 235 690 q 292 713 365 713 z m 365 636 q 309 636 269 616 q 228 596 202 558 q 176 521 164 468 q 151 416 151 351 q 151 286 164 233 q 176 180 202 143 q 228 105 269 85 q 309 65 365 65 q 419 65 460 85 q 500 104 527 142 q 553 179 566 232 q 579 285 579 351 q 579 417 566 470 q 553 523 527 560 q 500 597 460 616 q 419 636 365 636 z"},"w":{"x_min":0,"x_max":728,"ha":728,"o":"m 543 0 l 431 0 l 370 236 l 272 0 l 162 0 l 32 508 l 116 508 l 223 61 l 341 354 l 301 508 l 385 508 l 495 61 q 548 183 569 245 q 594 319 594 373 q 594 420 571 500 q 616 511 652 518 q 672 467 678 409 q 679 395 679 379 q 679 299 634 193 q 622 165 607 132 q 591 100 571 57 q 550 14 543 0 z"},"-":{"x_min":0,"x_max":568,"ha":568,"o":"m 100 309 l 469 309 l 469 236 l 100 236 z"},"E":{"x_min":0,"x_max":552,"ha":552,"o":"m 89 702 l 479 702 l 479 627 l 181 627 l 181 433 l 392 433 l 392 358 l 181 358 l 181 75 l 490 75 l 490 0 l 89 0 z"},"s":{"x_min":0,"x_max":466,"ha":466,"o":"m 233 519 q 273 519 313 511 q 354 502 388 488 q 381 472 374 457 q 367 442 358 427 q 346 432 331 437 q 316 442 300 445 q 283 449 266 451 q 249 453 232 453 q 214 453 197 449 q 180 446 167 438 q 154 429 146 416 q 139 402 139 382 q 139 362 147 348 q 156 334 171 325 q 187 315 207 309 q 227 303 250 297 q 286 289 316 278 q 347 267 370 249 q 392 231 405 206 q 417 180 417 142 q 417 102 402 73 q 386 44 359 25 q 332 6 295 -3 q 259 -12 218 -12 q 197 -12 174 -9 q 151 -6 129 -1 q 107 4 85 11 q 64 19 45 27 q 52 43 59 58 q 67 73 75 87 q 91 81 109 74 q 127 68 146 64 q 166 60 184 57 q 203 54 220 54 q 241 54 261 59 q 282 64 298 74 q 313 85 323 102 q 333 118 333 142 q 333 164 323 178 q 314 192 299 201 q 284 211 264 217 q 244 223 221 229 q 187 237 156 248 q 126 258 103 276 q 81 293 67 319 q 54 344 54 382 q 54 418 68 444 q 83 470 108 486 q 132 503 165 511 q 197 519 233 519 z"},">":{"x_min":0,"x_max":468,"ha":468,"o":"m 437 224 l 33 47 l 33 116 l 347 253 l 33 388 l 33 457 l 437 281 z"},"l":{"x_min":0,"x_max":232,"ha":232,"o":"m 152 197 q 152 157 153 130 q 154 103 156 83 q 157 62 160 45 q 164 29 168 9 q 148 3 127 -1 q 107 -6 86 -9 q 77 22 73 49 q 68 75 68 101 l 68 702 l 152 702 z"},"8":{"x_min":0,"x_max":520,"ha":520,"o":"m 380 344 q 403 332 422 317 q 440 303 454 283 q 467 264 474 239 q 481 214 481 181 q 481 135 464 99 q 447 63 417 39 q 388 14 347 1 q 307 -12 260 -12 q 212 -12 172 1 q 131 14 102 39 q 72 64 55 101 q 39 138 39 185 q 39 213 46 238 q 54 262 68 283 q 82 303 102 320 q 121 336 145 349 q 130 359 118 372 q 105 385 95 401 q 86 417 81 438 q 75 459 75 486 q 75 524 90 553 q 105 582 131 601 q 157 621 191 631 q 225 642 262 642 q 300 642 334 631 q 369 621 395 601 q 420 582 436 552 q 451 523 451 486 q 451 443 432 407 q 414 372 380 344 z m 262 573 q 239 573 219 567 q 199 562 185 551 q 170 540 161 523 q 153 506 153 484 q 153 451 169 431 q 186 411 211 399 q 236 387 265 381 q 294 374 319 368 q 334 381 345 395 q 355 408 361 422 q 368 436 370 451 q 373 466 373 484 q 373 507 364 523 q 355 540 340 551 q 325 562 305 567 q 285 573 262 573 z m 260 57 q 292 57 318 66 q 344 75 362 91 q 379 107 389 130 q 398 153 398 181 q 398 206 390 225 q 381 243 367 256 q 352 270 333 279 q 313 288 292 294 q 270 301 247 306 q 225 311 204 315 q 163 292 142 260 q 121 228 121 185 q 121 155 131 131 q 140 107 158 91 q 176 75 202 66 q 228 57 260 57 z"},"\\":{"x_min":0,"x_max":556,"ha":556,"o":"m 413 0 l 66 702 l 144 702 l 490 0 z"},"e":{"x_min":0,"x_max":538,"ha":538,"o":"m 462 28 q 408 7 360 -2 q 312 -12 275 -12 q 217 -12 174 7 q 131 25 103 58 q 74 91 60 137 q 45 184 45 239 q 45 273 50 308 q 55 342 66 373 q 77 404 94 431 q 111 458 136 477 q 161 497 194 508 q 228 519 270 519 q 379 519 434 451 q 489 383 489 256 l 489 229 l 132 229 q 132 188 141 156 q 149 125 168 103 q 186 82 214 70 q 242 59 281 59 q 302 59 323 62 q 345 65 365 71 q 385 76 403 82 q 421 88 438 94 z m 405 296 q 401 375 367 412 q 333 448 270 448 q 207 448 174 412 q 141 375 134 296 z"},"b":{"x_min":0,"x_max":540,"ha":540,"o":"m 86 703 l 170 703 l 170 411 l 180 410 q 203 460 234 487 q 271 519 322 519 q 411 519 458 444 q 501 374 501 264 q 501 129 437 57 q 376 -12 256 -12 q 191 -12 86 4 z m 165 300 l 165 69 q 210 60 256 60 q 335 60 375 106 q 416 154 416 249 q 416 334 397 380 q 373 441 314 441 q 263 441 224 398 q 197 369 165 300 z"},"%":{"x_min":0,"x_max":594,"ha":594,"o":"m 173 647 q 194 647 214 641 q 233 635 248 619 q 263 603 273 574 q 282 544 282 503 q 282 476 278 458 q 274 440 267 424 q 259 409 249 398 q 238 388 226 381 q 214 375 200 373 q 187 370 173 370 q 151 370 132 376 q 112 382 97 398 q 82 414 72 441 q 62 468 62 508 q 62 549 72 576 q 82 603 97 619 q 112 635 132 641 q 151 647 173 647 z m 173 608 q 157 608 145 602 q 133 597 125 584 q 118 571 113 553 q 109 534 109 508 q 109 482 113 464 q 118 445 125 433 q 133 420 145 415 q 157 409 173 409 q 188 409 199 415 q 211 420 219 433 q 227 445 231 464 q 236 482 236 508 q 236 534 231 553 q 227 571 219 584 q 211 597 199 602 q 188 608 173 608 z m 517 520 l 517 459 l 77 130 l 77 191 z m 422 284 q 443 284 463 277 q 483 271 498 255 q 513 239 522 212 q 532 186 532 145 q 532 117 528 97 q 523 76 516 61 q 508 45 498 34 q 488 24 476 18 q 463 11 450 9 q 437 6 422 6 q 401 6 381 12 q 362 19 346 34 q 331 50 322 77 q 312 104 312 145 q 312 186 322 212 q 331 239 346 255 q 362 271 381 277 q 401 284 422 284 z m 422 244 q 407 244 395 239 q 383 233 375 220 q 367 208 363 189 q 358 170 358 145 q 358 118 363 100 q 367 82 375 69 q 383 57 395 51 q 407 45 422 45 q 437 45 449 51 q 461 57 469 69 q 477 82 481 100 q 485 118 485 145 q 485 170 481 189 q 477 208 469 220 q 461 233 449 239 q 437 244 422 244 z"},"m":{"x_min":0,"x_max":850,"ha":850,"o":"m 82 0 l 82 314 q 82 389 79 427 q 77 457 66 500 l 146 518 q 155 489 159 461 q 161 451 164 408 l 174 408 q 199 458 237 486 q 277 519 329 519 q 358 519 386 509 q 413 498 432 479 q 459 452 471 398 l 477 398 q 506 455 546 485 q 588 519 641 519 q 705 519 739 483 q 769 454 781 393 q 790 348 790 269 l 790 0 l 706 0 l 706 292 q 706 331 702 355 q 695 394 677 416 q 655 441 616 441 q 571 441 533 398 q 510 373 478 318 q 479 310 479 294 l 479 0 l 395 0 l 395 292 q 395 354 383 387 q 362 441 305 441 q 261 441 222 397 q 199 372 166 313 l 166 0 z"},"#":{"x_min":0,"x_max":630,"ha":630,"o":"m 446 462 l 500 462 l 461 358 l 577 358 l 558 307 l 444 307 l 407 206 l 521 206 l 503 154 l 388 154 l 350 51 l 296 51 l 331 154 l 224 154 l 185 51 l 127 51 l 167 154 l 54 154 l 72 206 l 185 206 l 223 307 l 105 307 l 125 358 l 242 358 l 280 462 l 333 462 l 294 358 l 408 358 z m 351 206 l 389 307 l 276 307 l 242 206 z"},",":{"x_min":0,"x_max":341,"ha":341,"o":"m 100 86 q 119 100 132 104 q 146 109 159 109 q 183 109 198 100 q 212 90 219 75 q 226 61 225 42 q 224 22 216 3 q 210 -9 202 -26 q 193 -43 183 -62 q 173 -80 163 -98 q 153 -115 146 -128 l 86 -128 l 125 0 z"},"n":{"x_min":0,"x_max":560,"ha":560,"o":"m 66 499 l 147 517 q 156 488 160 460 q 162 447 165 408 l 175 408 q 202 458 242 487 q 285 519 333 519 q 406 519 444 484 q 477 454 490 393 q 498 351 498 268 l 498 0 l 414 0 l 414 291 q 414 364 400 395 q 379 441 315 441 q 271 441 228 398 q 199 370 166 314 l 166 0 l 82 0 l 82 312 q 82 378 79 426 q 77 456 66 499 z"},"h":{"x_min":0,"x_max":566,"ha":566,"o":"m 85 703 l 169 703 l 169 397 q 202 453 244 484 q 291 519 338 519 q 408 519 447 484 q 481 454 494 393 q 503 346 503 268 l 503 0 l 419 0 l 419 291 q 419 321 418 340 q 417 359 411 381 q 405 402 395 414 q 384 426 365 434 q 347 441 320 441 q 273 441 230 397 q 203 370 169 312 l 169 0 l 85 0 z"},"z":{"x_min":0,"x_max":484,"ha":484,"o":"m 195 437 q 175 437 159 438 q 142 438 127 440 q 111 441 95 445 q 80 449 61 456 q 67 474 73 490 q 80 507 86 525 q 105 519 121 516 q 136 512 150 510 q 165 509 181 508 q 196 508 218 508 l 423 508 l 423 449 l 168 71 l 427 71 l 427 0 l 63 0 l 63 59 l 317 437 z"},"B":{"x_min":0,"x_max":633,"ha":633,"o":"m 308 702 q 358 702 402 695 q 445 687 478 668 q 511 649 530 616 q 549 583 549 533 q 549 502 542 479 q 535 456 523 438 q 510 419 492 406 q 474 394 452 385 l 452 384 q 479 377 504 363 q 528 349 547 327 q 565 305 576 275 q 587 245 587 207 q 587 151 568 112 q 548 73 514 48 q 479 23 433 12 q 386 0 332 0 l 87 0 l 87 702 z m 307 414 q 342 414 370 419 q 397 425 417 439 q 436 453 447 476 q 457 500 457 534 q 457 563 445 582 q 433 601 412 612 q 391 623 363 627 q 336 631 307 631 l 179 631 l 179 414 z m 332 71 q 366 71 396 80 q 426 89 448 106 q 470 123 483 148 q 496 174 496 207 q 496 240 483 265 q 470 291 448 308 q 426 325 396 333 q 366 342 332 342 l 179 342 l 179 71 z"},"K":{"x_min":0,"x_max":641,"ha":641,"o":"m 495 713 l 557 663 l 288 344 l 581 0 l 470 0 l 182 339 l 182 0 l 90 0 l 90 702 l 182 702 l 182 341 z"},"R":{"x_min":0,"x_max":623,"ha":623,"o":"m 310 702 q 356 702 398 691 q 439 681 471 657 q 503 633 521 597 q 540 560 540 510 q 540 460 521 424 q 503 387 471 363 q 446 345 415 334 q 385 324 350 320 l 350 319 q 364 310 381 293 q 398 276 417 253 q 435 230 455 204 q 474 177 494 148 l 596 0 l 488 0 l 378 171 q 348 218 326 247 q 305 275 285 292 q 266 309 246 314 q 226 320 200 320 l 181 320 l 181 0 l 90 0 l 90 702 z m 310 392 q 341 392 366 398 q 392 405 410 420 q 428 434 438 457 q 449 479 449 510 q 449 542 438 564 q 428 586 410 601 q 392 615 366 622 q 341 629 310 629 l 181 629 l 181 392 z"},"T":{"x_min":0,"x_max":604,"ha":604,"o":"m 39 702 l 565 702 l 565 627 l 349 627 l 349 0 l 257 0 l 257 627 l 39 627 z"},"P":{"x_min":0,"x_max":595,"ha":595,"o":"m 310 702 q 358 702 400 692 q 442 681 473 657 q 504 634 522 596 q 540 558 540 503 q 540 442 520 403 q 499 365 464 342 q 429 320 383 312 q 337 303 286 303 q 258 303 231 305 q 205 307 181 310 l 181 0 l 90 0 l 90 702 z m 181 383 q 205 380 230 378 q 256 376 282 376 q 319 376 350 381 q 381 386 403 399 q 425 413 437 438 q 449 463 449 503 q 449 540 439 564 q 429 588 410 603 q 392 617 366 623 q 341 629 310 629 l 181 629 z"},"|":{"x_min":0,"x_max":300,"ha":300,"o":"m 112 767 l 188 767 l 188 -64 l 112 -64 z"},"t":{"x_min":0,"x_max":420,"ha":420,"o":"m 127 624 l 211 624 l 211 508 l 382 508 l 382 437 l 211 437 l 211 146 q 211 116 213 101 q 214 85 221 77 q 234 59 272 59 q 294 59 314 63 q 334 68 352 73 q 365 43 376 8 q 319 -12 260 -12 q 218 -12 192 -2 q 167 7 152 29 q 137 51 132 83 q 127 114 127 169 l 127 437 l 54 437 l 54 508 l 127 508 z"},"M":{"x_min":0,"x_max":925,"ha":925,"o":"m 658 702 l 794 702 l 878 0 l 789 0 l 716 591 l 711 591 l 517 0 l 408 0 l 214 591 l 209 591 l 136 0 l 46 0 l 131 702 l 267 702 l 462 94 z"},"g":{"x_min":0,"x_max":546,"ha":546,"o":"m 372 508 q 393 508 409 508 q 425 509 439 510 q 454 512 469 516 q 484 519 504 525 q 510 507 516 490 q 522 474 529 456 q 513 450 500 447 q 487 443 474 441 q 461 439 448 438 q 435 438 420 437 q 434 415 441 388 q 449 360 449 328 q 449 281 435 246 q 420 211 394 187 q 368 163 331 150 q 294 138 248 138 q 225 138 204 140 q 183 143 164 150 q 159 138 156 126 q 153 114 153 103 q 153 92 157 83 q 161 74 171 68 q 176 65 181 64 q 187 62 194 61 q 202 60 212 59 q 223 58 238 58 q 253 58 273 58 q 292 58 319 58 q 395 58 434 26 q 473 -6 473 -74 q 473 -101 464 -122 q 456 -144 440 -159 q 425 -175 404 -185 q 383 -196 358 -202 q 334 -209 307 -212 q 281 -214 254 -214 q 227 -214 200 -211 q 173 -208 147 -204 q 121 -200 98 -194 q 76 -188 58 -183 q 65 -167 73 -150 q 82 -133 92 -119 q 123 -127 165 -136 q 208 -144 259 -144 q 283 -144 305 -141 q 328 -138 346 -130 q 365 -122 376 -109 q 387 -95 387 -74 q 387 -51 379 -39 q 371 -27 357 -21 q 344 -15 325 -14 q 307 -13 286 -13 l 222 -13 q 193 -13 168 -9 q 143 -4 124 6 q 104 17 94 34 q 83 51 83 76 q 83 100 91 125 q 100 151 114 177 q 82 201 65 239 q 47 278 47 328 q 47 374 62 409 q 76 445 103 470 q 129 495 166 507 q 202 519 248 519 q 291 519 327 508 z m 248 452 q 217 452 195 442 q 173 433 159 417 q 146 400 139 378 q 132 355 132 328 q 132 301 139 278 q 146 256 160 240 q 174 223 196 214 q 217 205 248 205 q 279 205 301 214 q 323 223 337 240 q 351 256 357 279 q 364 301 364 328 q 364 355 357 378 q 351 400 337 417 q 323 433 301 442 q 279 452 248 452 z"},"j":{"x_min":0,"x_max":322,"ha":322,"o":"m 181 705 q 203 705 220 689 q 236 672 236 649 q 236 625 220 609 q 203 593 181 593 q 157 593 141 609 q 124 625 124 649 q 124 672 141 689 q 157 705 181 705 z m 138 508 l 222 508 l 222 70 q 222 -19 204 -65 q 187 -110 132 -170 l 104 -201 l 48 -155 q 88 -106 102 -84 q 102 -83 113 -63 q 138 -10 138 64 z"},"i":{"x_min":0,"x_max":265,"ha":265,"o":"m 131 705 q 154 705 170 689 q 187 672 187 649 q 187 625 170 609 q 154 593 131 593 q 108 593 91 609 q 75 625 75 649 q 75 672 91 689 q 108 705 131 705 z m 88 508 l 172 508 l 172 0 l 88 0 z"},"y":{"x_min":0,"x_max":579,"ha":579,"o":"m 493 508 l 493 -11 q 493 -60 477 -95 q 461 -130 433 -153 q 405 -176 367 -187 q 328 -198 283 -198 q 242 -198 200 -191 q 159 -184 121 -171 q 127 -154 134 -138 q 141 -122 148 -105 q 160 -109 176 -114 q 192 -118 211 -122 q 229 -125 248 -128 q 268 -130 286 -130 q 314 -130 337 -122 q 360 -115 376 -100 q 392 -84 401 -62 q 409 -40 409 -11 l 409 99 l 400 99 q 387 76 371 56 q 354 36 334 21 q 314 5 291 -3 q 268 -12 242 -12 q 206 -12 180 -4 q 153 4 135 20 q 116 36 104 60 q 92 83 85 115 q 80 143 79 174 q 77 206 77 240 l 77 508 l 161 508 l 161 216 q 161 185 164 157 q 167 129 177 109 q 187 89 207 77 q 226 66 260 66 q 285 66 307 78 q 329 90 347 108 q 366 127 381 149 q 396 172 409 193 l 409 508 z"},"@":{"x_min":0,"x_max":830,"ha":830,"o":"m 415 -104 q 366 -104 321 -91 q 276 -78 237 -55 q 198 -33 166 0 q 134 32 111 71 q 88 110 75 155 q 63 200 63 249 q 63 298 75 343 q 88 388 111 427 q 134 466 166 499 q 198 531 237 553 q 276 576 321 589 q 366 602 415 602 q 463 602 508 589 q 553 576 592 553 q 631 530 664 498 q 696 466 719 427 q 742 387 754 342 q 767 297 767 249 q 767 152 717 104 q 667 57 562 57 q 546 57 528 58 q 510 59 492 62 q 488 76 486 87 q 485 91 485 95 q 484 99 484 103 q 483 106 483 113 q 483 119 483 128 q 483 145 484 158 q 484 172 484 181 l 479 182 q 472 156 461 134 q 450 111 435 94 q 420 78 401 68 q 382 59 358 59 q 336 59 319 68 q 302 77 290 92 q 278 107 271 126 q 263 146 260 167 q 257 182 256 196 q 255 210 255 226 q 255 264 264 301 q 272 338 293 368 q 313 398 348 417 q 382 435 433 435 q 485 435 554 418 l 549 287 q 548 275 548 255 q 547 236 547 215 q 546 194 545 174 q 545 153 545 140 q 545 134 545 130 q 545 125 545 123 q 545 120 545 118 q 545 115 546 113 q 556 111 564 111 q 573 111 582 111 q 613 111 636 121 q 660 131 675 150 q 691 168 699 193 q 707 219 707 249 q 707 289 696 326 q 686 363 667 396 q 647 428 621 455 q 594 482 561 501 q 529 520 492 531 q 455 541 415 541 q 375 541 337 531 q 300 520 268 501 q 235 482 208 455 q 182 428 163 396 q 144 363 133 326 q 123 289 123 249 q 123 209 133 172 q 144 135 163 102 q 182 70 208 43 q 235 16 268 -3 q 300 -22 337 -32 q 375 -43 415 -43 l 428 -43 l 428 -104 z m 491 376 q 479 378 466 380 q 454 381 441 381 q 402 381 378 367 q 353 353 339 331 q 325 308 320 280 q 314 252 314 226 q 314 195 319 171 q 323 148 334 132 q 345 116 367 116 q 379 116 391 122 q 402 127 411 138 q 423 151 435 169 q 446 186 455 205 q 465 224 472 242 q 479 261 485 277 z"},".":{"x_min":0,"x_max":315,"ha":315,"o":"m 158 109 q 170 109 181 105 q 192 101 200 92 q 217 75 217 50 q 217 25 200 8 q 192 0 181 -5 q 170 -10 158 -10 q 146 -10 135 -5 q 124 0 116 8 q 107 16 103 27 q 98 38 98 50 q 98 62 103 73 q 107 84 116 92 q 133 109 158 109 z"},"p":{"x_min":0,"x_max":544,"ha":544,"o":"m 165 -195 l 81 -195 l 81 316 q 81 401 79 428 q 76 461 67 500 l 148 518 q 157 490 161 462 q 166 428 166 410 l 173 410 q 199 462 229 487 q 267 519 321 519 q 369 519 404 498 q 438 478 458 440 q 477 403 486 359 q 495 314 495 261 q 495 200 483 152 q 470 104 444 66 q 418 29 375 9 q 332 -12 273 -12 q 227 -12 165 0 z m 165 302 l 165 75 q 220 60 267 60 q 306 60 335 74 q 363 89 379 115 q 396 141 403 173 q 410 206 410 246 q 410 273 409 294 q 408 314 405 339 q 401 363 395 380 q 388 397 377 412 q 367 426 351 434 q 334 441 313 441 q 261 441 223 400 q 196 370 165 302 z"},"X":{"x_min":0,"x_max":691,"ha":691,"o":"m 58 663 l 129 714 l 341 417 l 530 702 l 637 702 l 396 348 l 618 42 l 544 -11 l 342 274 l 160 0 l 54 0 l 288 344 z"},"*":{"x_min":0,"x_max":537,"ha":537,"o":"m 245 703 l 294 703 l 300 580 l 417 611 l 432 565 l 318 522 l 385 421 l 346 393 l 270 488 l 193 393 l 154 421 l 221 523 l 106 566 l 122 612 l 239 580 z"},"Y":{"x_min":0,"x_max":663,"ha":663,"o":"m 526 702 l 631 702 l 377 316 l 377 0 l 286 0 l 286 316 l 32 702 l 136 702 l 331 392 z"},"c":{"x_min":0,"x_max":475,"ha":475,"o":"m 437 18 q 399 5 356 -3 q 312 -12 274 -12 q 215 -12 172 5 q 129 22 101 55 q 73 88 60 135 q 46 183 46 244 q 46 311 63 362 q 80 413 112 448 q 144 483 190 501 q 236 519 294 519 q 324 519 355 513 q 386 507 417 498 l 396 429 q 371 438 349 442 q 328 447 304 447 q 221 447 176 399 q 131 351 131 254 q 131 208 137 173 q 144 137 161 112 q 178 86 207 73 q 236 60 281 60 q 310 60 344 68 q 378 75 416 86 z"},"!":{"x_min":0,"x_max":315,"ha":315,"o":"m 73 666 q 90 692 109 702 q 128 713 149 713 q 166 713 177 706 q 189 699 196 688 q 204 676 207 661 q 210 645 210 627 l 190 206 l 132 189 l 113 584 z m 158 109 q 170 109 181 105 q 192 100 200 92 q 208 84 213 73 q 217 62 217 50 q 217 38 213 27 q 208 17 200 8 q 192 0 181 -5 q 170 -10 158 -10 q 146 -10 135 -5 q 124 0 116 8 q 107 16 103 27 q 98 38 98 50 q 98 62 103 73 q 107 84 115 92 q 124 100 135 105 q 146 109 158 109 z"},"/":{"x_min":0,"x_max":560,"ha":560,"o":"m 415 702 l 492 702 l 146 0 l 68 0 z"},"[":{"x_min":0,"x_max":347,"ha":347,"o":"m 98 767 l 259 767 l 259 702 l 177 702 l 177 0 l 259 0 l 259 -64 l 98 -64 z"},"6":{"x_min":0,"x_max":520,"ha":520,"o":"m 424 646 l 424 580 q 302 585 234 536 q 166 487 146 377 q 177 398 217 411 q 256 423 290 423 q 377 423 428 370 q 479 313 479 212 q 479 168 466 129 q 453 90 427 58 q 402 26 359 7 q 317 -12 263 -12 q 188 -12 137 21 q 87 55 66 113 q 44 170 46 251 q 49 360 80 449 q 100 506 135 547 q 170 588 216 610 q 262 632 313 641 q 365 650 424 646 z m 137 296 q 131 268 131 232 q 131 195 138 165 q 145 134 159 110 q 174 85 200 72 q 227 59 263 59 q 326 59 360 100 q 394 141 394 210 q 394 287 360 321 q 329 353 273 353 q 241 353 204 337 q 167 321 137 296 z"},"r":{"x_min":0,"x_max":407,"ha":407,"o":"m 173 390 q 188 420 206 445 q 223 469 244 486 q 263 503 286 511 q 309 519 338 519 q 348 519 361 518 q 374 517 386 515 q 384 490 381 469 q 378 447 374 425 q 350 430 329 432 q 309 434 291 431 q 270 427 254 416 q 238 406 224 388 q 211 371 198 347 q 186 323 170 292 l 170 0 l 86 0 l 86 313 q 86 344 86 367 q 85 391 83 412 q 81 433 76 454 q 72 475 64 500 q 85 505 105 510 q 125 514 145 518 q 152 499 156 483 q 160 468 163 454 q 165 439 166 425 q 167 410 169 390 z"},"2":{"x_min":0,"x_max":465,"ha":465,"o":"m 245 529 q 281 529 311 521 q 341 513 365 496 q 389 479 403 449 q 417 420 417 382 q 417 350 409 326 q 396 283 349 254 q 325 240 247 206 q 246 205 244 204 q 243 204 242 203 q 241 203 239 202 q 211 190 203 186 q 195 182 177 170 q 159 158 154 147 q 149 136 143 117 q 138 98 138 73 l 407 73 l 407 0 l 54 0 l 54 68 q 54 105 62 135 q 71 165 85 185 q 99 206 123 223 q 148 241 172 253 q 196 265 233 280 q 261 291 275 298 q 289 305 304 316 q 319 328 325 343 q 332 358 332 379 q 332 420 306 439 q 280 458 236 458 q 167 458 89 421 l 63 484 q 151 529 245 529 z"},"{":{"x_min":0,"x_max":347,"ha":347,"o":"m 105 449 l 105 638 q 105 695 140 727 q 180 764 268 764 l 268 704 q 211 704 192 682 q 177 664 177 618 l 177 449 q 177 416 164 389 q 155 371 140 353 q 155 334 164 316 q 177 290 177 257 l 177 82 q 177 34 192 17 q 211 -4 268 -4 l 268 -64 q 180 -64 140 -27 q 105 4 105 62 l 105 257 q 105 288 81 324 q 70 341 58 353 q 83 376 98 412 q 105 429 105 449 z"},"9":{"x_min":0,"x_max":520,"ha":520,"o":"m 98 -129 l 98 -63 q 220 -68 288 -19 q 356 30 376 140 q 345 119 305 106 q 266 94 232 94 q 145 94 94 147 q 43 204 43 305 q 43 349 56 388 q 69 427 95 459 q 120 491 163 510 q 205 529 259 529 q 334 529 385 496 q 435 462 456 405 q 478 347 476 266 q 473 157 442 68 q 422 11 387 -30 q 352 -71 306 -93 q 260 -115 208 -124 q 157 -133 98 -129 z m 385 221 q 391 250 391 285 q 391 322 384 353 q 377 383 363 407 q 348 432 322 445 q 295 458 259 458 q 196 458 162 417 q 128 376 128 307 q 128 230 162 196 q 193 164 249 164 q 281 164 318 180 q 354 196 385 221 z"}," ":{"x_min":0,"x_max":283,"ha":283,"o":""},"I":{"x_min":0,"x_max":291,"ha":291,"o":"m 100 702 l 191 702 l 191 0 l 100 0 z"},"H":{"x_min":0,"x_max":738,"ha":738,"o":"m 558 702 l 649 702 l 649 0 l 558 0 l 558 348 l 181 348 l 181 0 l 89 0 l 89 702 l 181 702 l 181 423 l 558 423 z"},"4":{"x_min":0,"x_max":551,"ha":551,"o":"m 251 529 l 332 511 q 325 445 287 369 l 138 73 l 343 73 l 343 208 l 425 208 l 425 73 l 517 73 l 517 0 l 425 0 l 425 -134 l 343 -134 l 343 0 l 54 0 l 34 61 l 194 377 q 222 431 232 457 q 242 482 251 529 z"},"~":{"x_min":0,"x_max":559,"ha":559,"o":"m 86 223 l 64 268 q 131 319 182 319 q 211 319 249 305 q 288 291 321 277 q 355 264 373 264 q 421 264 473 307 l 495 263 q 428 211 377 211 q 348 211 311 225 q 273 239 239 252 q 206 266 186 266 q 137 266 86 223 z"},"D":{"x_min":0,"x_max":672,"ha":672,"o":"m 89 0 l 89 702 l 237 702 q 297 702 349 696 q 400 690 443 675 q 486 660 519 635 q 551 609 575 570 q 598 531 609 478 q 621 424 621 351 q 621 278 609 225 q 598 171 575 132 q 551 93 519 68 q 486 42 443 27 q 400 12 349 6 q 297 0 237 0 z m 252 75 q 327 75 379 90 q 431 105 464 139 q 497 172 512 224 q 527 276 527 351 q 527 426 512 478 q 497 530 464 563 q 431 597 379 612 q 327 627 252 627 l 181 627 l 181 75 z"},"^":{"x_min":0,"x_max":377,"ha":377,"o":"m 164 544 l 216 544 l 368 208 l 311 208 l 190 480 l 69 208 l 13 208 z"},"0":{"x_min":0,"x_max":609,"ha":609,"o":"m 305 528 q 360 528 408 507 q 456 485 491 449 q 525 412 545 363 q 565 313 565 258 q 565 202 545 152 q 525 103 491 66 q 456 30 408 9 q 360 -13 305 -13 q 249 -13 201 9 q 153 30 118 66 q 83 103 64 152 q 44 202 44 258 q 44 313 64 363 q 83 412 118 449 q 153 485 201 507 q 249 528 305 528 z m 305 451 q 267 451 234 436 q 202 421 179 395 q 155 369 142 333 q 129 298 129 258 q 129 217 142 182 q 155 146 179 120 q 202 94 234 79 q 267 64 305 64 q 343 64 375 79 q 407 94 430 120 q 454 146 467 182 q 480 217 480 258 q 480 298 467 333 q 454 369 430 395 q 407 421 375 436 q 343 451 305 451 z"},"F":{"x_min":0,"x_max":513,"ha":513,"o":"m 89 702 l 479 702 l 479 627 l 181 627 l 181 433 l 392 433 l 392 358 l 181 358 l 181 0 l 89 0 z"},"`":{"x_min":0,"x_max":281,"ha":281,"o":"m 218 577 l 159 577 q 103 675 89 708 q 80 734 80 758 q 81 782 98 798 q 115 814 146 814 q 173 814 205 791 l 180 705 z"},"k":{"x_min":0,"x_max":507,"ha":507,"o":"m 83 703 l 167 703 l 167 280 l 395 519 l 450 465 l 252 262 l 502 0 l 397 0 l 167 244 l 167 0 l 83 0 z"},"u":{"x_min":0,"x_max":565,"ha":565,"o":"m 502 9 l 421 -9 q 412 20 408 47 q 406 60 403 99 l 393 99 q 366 50 326 21 q 283 -12 234 -12 q 162 -12 124 23 q 91 53 78 115 q 70 157 70 240 l 70 508 l 154 508 l 154 216 q 154 144 168 112 q 189 66 252 66 q 297 66 340 109 q 369 138 402 193 l 402 508 l 486 508 l 486 194 q 486 129 489 82 q 491 52 502 9 z"},"]":{"x_min":0,"x_max":347,"ha":347,"o":"m 88 767 l 250 767 l 250 -64 l 88 -64 l 88 0 l 170 0 l 170 702 l 88 702 z"},"U":{"x_min":0,"x_max":726,"ha":726,"o":"m 551 702 l 643 702 l 643 296 q 643 143 574 66 q 505 -12 362 -12 q 83 -12 83 296 l 83 702 l 175 702 l 175 296 q 175 242 184 201 q 193 161 214 129 q 235 98 272 81 q 310 65 362 65 q 405 65 438 76 q 471 87 492 106 q 513 126 527 156 q 540 185 545 219 q 551 253 551 296 z"},"o":{"x_min":0,"x_max":543,"ha":543,"o":"m 271 519 q 295 519 321 515 q 347 512 372 501 q 396 491 419 472 q 441 454 458 425 q 475 395 485 353 q 495 312 495 254 q 495 196 485 155 q 475 113 458 83 q 441 54 419 35 q 396 17 372 6 q 347 -4 321 -8 q 295 -12 271 -12 q 248 -12 222 -8 q 196 -4 171 6 q 146 17 125 35 q 103 54 85 83 q 68 113 59 155 q 49 196 49 254 q 49 312 59 353 q 68 395 85 425 q 103 454 125 472 q 146 491 171 501 q 196 512 222 515 q 247 519 271 519 z m 271 450 q 243 450 219 441 q 194 433 175 411 q 156 388 145 351 q 134 313 134 254 q 134 195 145 157 q 156 120 175 98 q 194 75 219 67 q 243 58 271 58 q 299 58 324 67 q 350 75 369 98 q 388 120 399 157 q 410 195 410 254 q 410 313 399 351 q 388 388 369 411 q 350 433 324 441 q 299 450 271 450 z"},"N":{"x_min":0,"x_max":747,"ha":747,"o":"m 660 -5 l 552 -5 l 179 582 l 179 0 l 87 0 l 87 702 l 194 702 l 568 115 l 568 702 l 660 702 z"},"+":{"x_min":0,"x_max":552,"ha":552,"o":"m 478 297 l 478 230 l 309 230 l 309 62 l 242 62 l 242 230 l 74 230 l 74 297 l 243 297 l 243 466 l 310 466 l 310 297 z"},"G":{"x_min":0,"x_max":683,"ha":683,"o":"m 614 38 q 556 14 493 1 q 431 -12 373 -12 q 296 -12 238 10 q 179 31 139 75 q 99 119 78 186 q 57 252 57 343 q 57 441 78 511 q 100 582 140 626 q 181 671 240 692 q 299 713 375 713 q 423 713 475 703 q 527 694 583 676 l 557 603 q 507 620 464 628 q 421 636 377 636 q 320 636 278 620 q 235 603 207 568 q 179 534 165 480 q 151 426 151 352 q 151 279 164 225 q 177 170 204 135 q 231 100 272 82 q 314 65 371 65 q 411 65 451 73 q 492 82 525 93 l 525 287 l 408 287 l 408 361 l 614 361 z"},"q":{"x_min":0,"x_max":549,"ha":549,"o":"m 464 -195 l 380 -195 l 380 97 l 370 98 q 347 47 315 21 q 279 -12 228 -12 q 139 -12 91 63 q 49 133 49 244 q 49 378 113 451 q 174 519 293 519 q 359 519 464 503 z m 385 208 l 385 438 q 340 447 293 447 q 214 447 175 401 q 134 353 134 259 q 134 173 152 127 q 177 66 235 66 q 287 66 326 109 q 353 138 385 208 z"},"d":{"x_min":0,"x_max":548,"ha":548,"o":"m 379 703 l 463 703 l 463 192 q 463 106 465 79 q 468 46 477 8 l 396 -10 q 387 17 383 45 q 378 79 378 98 l 371 98 q 345 45 314 20 q 277 -12 223 -12 q 175 -12 140 9 q 105 30 86 67 q 67 104 58 148 q 49 193 49 247 q 49 307 61 355 q 74 404 100 441 q 125 479 169 499 q 212 519 271 519 q 317 519 379 507 z m 379 206 l 379 433 q 324 447 277 447 q 238 447 209 433 q 181 418 165 392 q 148 366 141 334 q 134 302 134 262 q 134 234 135 214 q 136 193 139 169 q 143 145 149 127 q 156 110 167 96 q 177 81 193 73 q 209 66 231 66 q 283 66 321 107 q 348 138 379 206 z"},"1":{"x_min":0,"x_max":371,"ha":371,"o":"m 44 451 l 219 529 l 261 507 l 261 0 l 176 0 l 176 427 l 74 383 z"},"5":{"x_min":0,"x_max":477,"ha":477,"o":"m 44 -134 l 44 -59 q 135 -53 191 -38 q 265 -17 306 21 q 348 59 348 123 q 348 178 317 208 q 288 235 235 235 q 180 235 122 208 l 80 237 l 96 511 l 210 511 q 279 511 310 515 q 341 519 375 532 l 403 462 q 371 450 332 444 q 306 440 262 440 l 171 440 l 162 289 q 208 303 253 303 q 337 303 381 258 q 407 232 420 195 q 433 159 433 119 q 433 -45 227 -106 q 143 -131 44 -134 z"}}}
